<?xml version="1.0" encoding="UTF-8"?>
<!DOCTYPE svg PUBLIC "-//W3C//DTD SVG 1.1//EN" "http://www.w3.org/Graphics/SVG/1.1/DTD/svg11.dtd">
<svg xmlns="http://www.w3.org/2000/svg" version="1.1" width="512px" height="512px" style="shape-rendering:geometricPrecision; text-rendering:geometricPrecision; image-rendering:optimizeQuality; fill-rule:evenodd; clip-rule:evenodd" xmlns:xlink="http://www.w3.org/1999/xlink">
<g><path style="opacity:0.991" fill="#000000" d="M 232.5,-0.5 C 247.833,-0.5 263.167,-0.5 278.5,-0.5C 368.144,10.3879 435.644,54.7213 481,132.5C 497.695,163.971 507.861,197.304 511.5,232.5C 511.5,247.833 511.5,263.167 511.5,278.5C 501.693,362.758 461.36,427.925 390.5,474C 370.153,486.09 348.653,495.59 326,502.5C 325.5,438.834 325.333,375.168 325.5,311.5C 344.167,311.5 362.833,311.5 381.5,311.5C 383.556,290.55 386.223,269.716 389.5,249C 368.169,248.5 346.836,248.333 325.5,248.5C 325.333,232.163 325.5,215.83 326,199.5C 327.288,184.546 335.455,176.713 350.5,176C 364.163,175.5 377.829,175.333 391.5,175.5C 391.5,156.833 391.5,138.167 391.5,119.5C 369.862,117.155 348.195,116.655 326.5,118C 286.677,125.76 264.843,149.927 261,190.5C 260.5,209.83 260.333,229.164 260.5,248.5C 242.167,248.5 223.833,248.5 205.5,248.5C 205.5,269.5 205.5,290.5 205.5,311.5C 223.833,311.5 242.167,311.5 260.5,311.5C 260.5,378.167 260.5,444.833 260.5,511.5C 251.167,511.5 241.833,511.5 232.5,511.5C 142.856,500.612 75.3562,456.279 30,378.5C 13.3053,347.029 3.1386,313.696 -0.5,278.5C -0.5,263.167 -0.5,247.833 -0.5,232.5C 10.3875,142.857 54.7208,75.3573 132.5,30C 163.971,13.3053 197.304,3.1386 232.5,-0.5 Z"/></g>
</svg>
