<?xml version="1.0" encoding="utf-8"?>
<!-- Generator: Adobe Illustrator 28.0.0, SVG Export Plug-In . SVG Version: 6.00 Build 0)  -->
<svg version="1.1" id="Camada_1" xmlns="http://www.w3.org/2000/svg" xmlns:xlink="http://www.w3.org/1999/xlink" x="0px" y="0px"
	 viewBox="0 0 512 512" style="enable-background:new 0 0 512 512;" xml:space="preserve">
<style type="text/css">
	.st0{opacity:0.987;enable-background:new    ;}
</style>
<g>
	<path class="st0" d="M332.5,159.5c-2.2,1-4.5,1.8-7,2.5c-11.8,10-11.8,20,0,30c14.2,4.8,22.9-0.2,26-15
		C349.5,166.5,343.1,160.6,332.5,159.5z"/>
	<path class="st0" d="M247.5,180.5c-28.7,4.8-49.2,20.5-61.5,47c-11.5,33.8-4,62.6,22.5,86.5c27.9,20,56.9,21.6,87,5
		c31.7-23.4,41.5-53.9,29.5-91.5C309.6,194.9,283.8,179.2,247.5,180.5z M275.5,301c-29,9.3-50.8,0.8-65.5-25.5
		c-8.4-24.1-2.9-44.3,16.5-60.5c6-3.9,12.3-6.8,19-8.5c25.4-3.1,43.9,6.6,55.5,29C310.3,264.5,301.8,286.3,275.5,301z"/>
	<path class="st0" d="M481.5,133C436.1,55.2,368.6,10.9,279,0c-15.3,0-30.7,0-46,0c-35.2,3.6-68.5,13.8-100,30.5
		C55.2,75.9,10.9,143.4,0,233c0,15.3,0,30.7,0,46c3.6,35.2,13.8,68.5,30.5,100C75.9,456.8,143.4,501.1,233,512c15.3,0,30.7,0,46,0
		c35.2-3.6,68.5-13.8,100-30.5c77.8-45.4,122.1-112.9,133-202.5c0-15.3,0-30.7,0-46C508.4,197.8,498.2,164.5,481.5,133z M375,323.5
		c-2.9,27.5-17.7,44.4-44.5,50.5c-8,1.1-16,1.7-24,2c-39.7,0.9-79.3,0.6-119-1c-27.7-2.7-44.5-17.6-50.5-44.5c-1-7.6-1.7-15.3-2-23
		c-0.9-40-0.6-80,1-120c2.7-27.7,17.6-44.5,44.5-50.5c8.1-0.9,16.1-1.7,24-2.5c34-0.2,68,0,102,0.5c47.8-1.5,71,21.7,69.5,69.5
		C376.9,244.2,376.6,283.8,375,323.5z"/>
</g>
</svg>
