<?xml version="1.0" encoding="UTF-8"?>
<!DOCTYPE svg PUBLIC "-//W3C//DTD SVG 1.1//EN" "http://www.w3.org/Graphics/SVG/1.1/DTD/svg11.dtd">
<svg xmlns="http://www.w3.org/2000/svg" version="1.1" width="512px" height="512px" style="shape-rendering:geometricPrecision; text-rendering:geometricPrecision; image-rendering:optimizeQuality; fill-rule:evenodd; clip-rule:evenodd" xmlns:xlink="http://www.w3.org/1999/xlink">
<g><path style="opacity:0.987" fill="#000000" d="M 232.5,-0.5 C 247.833,-0.5 263.167,-0.5 278.5,-0.5C 368.144,10.3879 435.644,54.7213 481,132.5C 497.695,163.971 507.861,197.304 511.5,232.5C 511.5,247.833 511.5,263.167 511.5,278.5C 500.612,368.144 456.279,435.644 378.5,481C 347.03,497.695 313.697,507.861 278.5,511.5C 263.167,511.5 247.833,511.5 232.5,511.5C 142.856,500.612 75.3562,456.279 30,378.5C 13.3053,347.029 3.1386,313.696 -0.5,278.5C -0.5,263.167 -0.5,247.833 -0.5,232.5C 10.3875,142.857 54.7208,75.3573 132.5,30C 163.971,13.3053 197.304,3.1386 232.5,-0.5 Z M 196.5,133.5 C 265.096,130.798 331.429,141.632 395.5,166C 407.779,171.473 419.779,177.473 431.5,184C 443.034,193.478 445.534,204.978 439,218.5C 431.949,227.85 422.783,231.017 411.5,228C 367.34,203.456 320.006,189.123 269.5,185C 213.177,178.63 157.677,182.797 103,197.5C 83.634,194.124 76.3006,182.791 81,163.5C 83.998,155.836 89.498,151.003 97.5,149C 130.083,140.228 163.083,135.061 196.5,133.5 Z M 197.5,221.5 C 255.113,219.49 310.446,229.657 363.5,252C 375.15,257.491 386.483,263.491 397.5,270C 406.084,277.088 408.584,285.922 405,296.5C 400.11,305.528 392.61,309.028 382.5,307C 309.821,266.776 232.488,253.776 150.5,268C 141.008,269.706 131.674,272.04 122.5,275C 107.101,277.431 98.4345,270.931 96.5,255.5C 96.698,245.801 101.365,239.301 110.5,236C 139.138,228.116 168.138,223.283 197.5,221.5 Z M 196.5,305.5 C 256.723,301.709 313.056,314.542 365.5,344C 375.082,351.256 376.915,360.089 371,370.5C 366.996,374.612 362.163,376.112 356.5,375C 337.421,364.959 317.754,356.293 297.5,349C 261.151,338.618 224.151,335.284 186.5,339C 163.958,341.369 141.625,344.703 119.5,349C 107.447,343.844 104.28,335.344 110,323.5C 111.5,322 113,320.5 114.5,319C 126.268,315.392 138.268,312.725 150.5,311C 165.929,308.693 181.263,306.86 196.5,305.5 Z"/></g>
</svg>
