<?xml version="1.0" encoding="utf-8"?>
<!-- Generator: Adobe Illustrator 28.0.0, SVG Export Plug-In . SVG Version: 6.00 Build 0)  -->
<svg version="1.1" id="Camada_1" xmlns="http://www.w3.org/2000/svg" xmlns:xlink="http://www.w3.org/1999/xlink" x="0px" y="0px"
	 viewBox="0 0 512 512" style="enable-background:new 0 0 512 512;" xml:space="preserve">
<path d="M481.1,131.9c-0.4-0.7-0.7-1.3-1.1-1.9c-5-8.8-10.4-17.4-16.4-25.5c-0.9-1.2-1.7-2.3-2.6-3.5c-7.8-10.6-16.5-19.9-26-29.1
	c-1-1-1-1-2-1.9c-35.7-34.4-79.7-56.3-128-66.4c-1-0.2-2-0.4-3-0.6c-14.3-3-28.7-3.3-43.3-3.3c-1,0-2.1,0-3.1,0
	c-15.9-0.1-31.4,0.6-47,3.6c-0.7,0.2-1.5,0.3-2.2,0.4c-26,5.3-51.2,14.1-74.3,27.1c-0.7,0.4-1.4,0.8-2.1,1.2
	c-8.9,5-17.4,10.4-25.5,16.4c-1.2,0.9-2.3,1.7-3.5,2.6c-10.6,7.8-19.9,16.5-29.1,26c-0.7,0.7-1.3,1.3-1.9,2
	c-34.4,35.7-56.3,79.7-66.4,128c-0.2,1-0.4,2-0.6,3c-3,14.3-3.3,28.7-3.3,43.3c0,1,0,2.1,0,3.1c-0.1,15.9,0.6,31.4,3.6,47
	c0.2,0.7,0.3,1.5,0.4,2.2c5.3,26,14.1,51.2,27.1,74.3c0.4,0.7,0.8,1.4,1.2,2.1c5,8.9,10.4,17.4,16.4,25.6c0.9,1.1,1.7,2.3,2.6,3.4
	c10.6,14.5,23.2,27.3,36.7,39.1c0.8,0.7,1.5,1.3,2.3,1.9c33.2,28.7,74.3,48.7,117.6,56.4c1.7,0.3,1.7,0.3,3.4,0.6
	c13.2,2.2,26.1,3.4,39.5,3.4c2.9,0,5.9,0,8.8,0c14.9,0,29.4-0.8,44.1-3.6c0.7-0.2,1.5-0.3,2.2-0.4c26-5.3,51.2-14.1,74.3-27.1
	c0.7-0.4,1.4-0.8,2.1-1.2c8.9-5,17.4-10.4,25.5-16.4c1.2-0.9,2.3-1.7,3.5-2.6c10.6-7.8,19.9-16.5,29.1-26c0.7-0.7,1.3-1.3,1.9-2
	c34.4-35.7,56.3-79.7,66.4-128c0.3-1.5,0.3-1.5,0.6-3c3-14.3,3.3-28.7,3.3-43.3c0-1,0-2.1,0-3.1
	C512.5,212.4,502.7,169.7,481.1,131.9z M425,185c-3.8,1.2-7.7,2.3-11.5,3.4c-1.1,0.3-2.2,0.7-3.3,1c-5.8,1.7-11.2,3.1-17.2,3.6
	c-0.3-1.1-0.7-2.2-1-3.4c-10.3-32.8-29.7-61.2-60.6-77.6c-37.3-18.8-86.2-20.5-125.6-7.8c-17.7,6.2-32.5,15.6-45.8,28.7
	c-1.2,1.1-1.2,1.1-2.4,2.3C146.4,146.9,138.8,162,133,177c-0.4,1.1-0.9,2.3-1.4,3.5c-18.1,49.7-16.2,115.9,5.3,164.1
	c1.8,3.9,3.9,7.7,6,11.4c0.3,0.6,0.7,1.2,1,1.8c5.3,9.1,11.5,16.8,19,24.2c0.7,0.7,1.5,1.5,2.2,2.2c13.5,12.7,31,21.1,48.8,25.8
	c1,0.3,2,0.6,3.1,0.8c37.2,9.4,82.4,6.9,115.9-12.8c20.9-12.8,35.1-30,41-54c3-16.8,0.8-33.7-9-48c-5.7-7.4-12.3-12.8-20-18
	c-1.6,1.6-1.5,3.6-1.9,5.9c-3.6,20.4-11.4,38.3-26.1,53.1c-0.7,0.7-1.3,1.4-2,2.1c-16.5,15.9-39.1,20.3-61.2,20.3
	c-20.7-0.4-40.1-7.8-55.1-22.3c-13.3-14-17.2-29.3-17-48.1c0.6-16.6,9.3-30,21.1-41.1c9-8,19.9-13.2,31.2-16.8c1-0.3,1-0.3,2-0.6
	c12.3-3.7,24.9-3.7,37.7-3.7c0.8,0,1.7,0,2.5,0c11.4,0,22.5,0.8,33.8,2.4c-4.3-14.7-8.3-27.6-22.4-35.7c-9.4-4.9-18.3-5.5-28.7-5.6
	c-1.1,0-2.1-0.1-3.3-0.1c-9.7-0.1-17.8,2.3-26.1,7.5c-0.8,0.5-1.6,1-2.4,1.5c-2.1,1.4-2.1,1.4-3.8,3.1C222,201,222,201,220,201
	c-0.3,0.6-0.6,1.2-0.9,1.9C218,205,218,205,216,207c-5.4-0.5-10.2-4.8-14.6-7.7c-1.7-1.1-3.4-2.2-5.1-3.4c-1.1-0.7-2.1-1.4-3.2-2.1
	c-1-0.6-2-1.3-3-2c-0.7-0.6-1.4-1.2-2.1-1.8c0-5.9,5.5-10.4,9.4-14.5c17.5-16.8,40.3-24,64.3-23.8c22.8,0.6,44.4,7.6,60.7,24.2
	c10.6,11.4,17.2,25.7,20.9,40.7c0.2,0.7,0.4,1.4,0.5,2.2c1.1,4.8,1,8.9,0.7,13.8c-0.1,3.5-0.1,3.5,1.4,6.6c4.8,4,10.9,6.3,16.6,8.8
	c5.4,2.6,9.8,6.4,14.4,10.2c0.7,0.5,1.4,1.1,2.1,1.6c17,13.6,26.7,34.7,30.5,55.7c2.1,20.3,0.2,40.2-8.6,58.6
	c-0.3,0.6-0.6,1.3-0.9,1.9c-4.1,8.5-8.8,15.9-15.1,23.1c-0.7,0.8-1.4,1.7-2.2,2.5c-17.1,19.6-38.3,32.4-62.8,40.5
	c-1,0.3-2,0.7-3.1,1c-18.9,6-37.8,7.4-57.5,7.4c-0.8,0-1.7,0-2.5,0c-14.7,0-29.6-0.7-43.9-4.1c-0.7-0.2-1.5-0.3-2.2-0.5
	c-24.4-5.9-46.7-16.3-65.8-32.7c-1-0.8-1.9-1.7-2.9-2.5c-7.1-6.2-13.4-12.9-19.1-20.5c-0.4-0.5-0.8-1.1-1.2-1.6
	c-28.5-38.5-36.2-87.6-36.1-134.3c0-1.1,0-2.1,0-3.2c0-17.3,1-33.8,4.4-50.8c0.2-0.8,0.3-1.6,0.5-2.5c5.7-29.8,18.2-59.7,38.5-82.5
	c0.7-0.8,1.5-1.7,2.2-2.6c26.1-29.9,64.7-46.9,104-50c51.1-3.1,104,4.4,143.2,40.2c1.9,1.8,3.8,3.6,5.6,5.4c0.7,0.7,1.4,1.3,2.2,2
	c17.6,16.8,29.2,39.8,37.5,62.4c0.3,0.7,0.5,1.4,0.8,2.1C425.8,178.5,426,180.9,425,185z"/>
</svg>
