<?xml version="1.0" encoding="UTF-8" standalone="no"?>
<!DOCTYPE svg PUBLIC "-//W3C//DTD SVG 1.1//EN" "http://www.w3.org/Graphics/SVG/1.1/DTD/svg11.dtd">
<svg width="100%" height="100%" viewBox="0 0 512 512" version="1.1" xmlns="http://www.w3.org/2000/svg" xmlns:xlink="http://www.w3.org/1999/xlink" xml:space="preserve" xmlns:serif="http://www.serif.com/" style="fill-rule:evenodd;clip-rule:evenodd;stroke-linejoin:round;stroke-miterlimit:2;">
    <g transform="matrix(2.60248,0,0,2.60248,-120.293,-29.31)">
        <path d="M144.59,11.26C198.882,11.26 242.96,55.338 242.96,109.63C242.96,163.922 198.882,208 144.59,208C90.298,208 46.22,163.922 46.22,109.63C46.22,55.338 90.298,11.26 144.59,11.26ZM175.58,104.9C175.02,104.63 174.46,104.38 173.88,104.13C172.88,85.71 162.82,75.17 145.92,75.06L145.69,75.06C135.58,75.06 127.18,79.37 122,87.22L131.29,93.59C135.15,87.73 141.22,86.48 145.69,86.48L145.84,86.48C151.4,86.52 155.6,88.13 158.32,91.29C160.3,93.59 161.62,96.76 162.27,100.77C157.34,99.93 152,99.67 146.3,100C130.23,100.93 119.91,110.3 120.6,123.31C120.95,129.91 124.24,135.6 129.86,139.31C134.61,142.45 140.73,143.98 147.1,143.63C155.5,143.17 162.09,139.96 166.69,134.1C170.18,129.65 172.39,123.88 173.37,116.61C177.37,119.03 180.34,122.21 181.98,126.03C184.77,132.53 184.93,143.21 176.22,151.91C168.59,159.54 159.41,162.84 145.54,162.94C130.16,162.83 118.52,157.89 110.96,148.28C103.88,139.28 100.22,126.27 100.08,109.62C100.22,92.97 103.88,79.97 110.96,70.96C118.52,61.34 130.16,56.41 145.54,56.3C161.04,56.42 172.87,61.37 180.73,71.03C184.58,75.77 187.48,81.73 189.4,88.68L200.29,85.77C197.97,77.22 194.32,69.85 189.35,63.74C179.28,51.35 164.56,45 145.58,44.87L145.5,44.87C126.56,45 112,51.37 102.22,63.81C93.52,74.88 89.03,90.27 88.87,109.57L88.87,109.67C89.02,128.97 93.51,144.37 102.22,155.43C112,167.86 126.56,174.24 145.5,174.37L145.58,174.37C162.41,174.25 174.28,169.85 184.06,160.08C196.85,147.3 196.46,131.29 192.25,121.45C189.23,114.41 183.46,108.68 175.58,104.9ZM146.51,132.23C139.47,132.63 132.15,129.47 131.79,122.7C131.52,117.68 135.36,112.08 146.94,111.41C148.27,111.33 149.57,111.3 150.84,111.3C155.05,111.3 158.98,111.71 162.56,112.49C161.23,129.14 153.41,131.85 146.51,132.23Z"/>
    </g>
</svg>
