<?xml version="1.0" encoding="UTF-8"?>
<svg version="1.1" xmlns="http://www.w3.org/2000/svg" width="512" height="512">
<path d="M0 0 C1.01790619 0.00215515 2.03581238 0.0043103 3.08456421 0.00653076 C17.69363523 0.05620146 32.02575853 0.30709809 46.375 3.3125 C47.34985352 3.51117676 48.32470703 3.70985352 49.32910156 3.91455078 C97.7109774 14.03517194 141.69928269 35.9516877 177.375 70.3125 C178.3640332 71.26068604 178.3640332 71.26068604 179.37304688 72.22802734 C188.86130305 81.37247479 197.6012044 90.66984009 205.375 101.3125 C206.23306152 102.46355017 207.09113451 103.61459177 207.94921875 104.765625 C213.98736829 112.95680614 219.34595521 121.47054105 224.375 130.3125 C224.73948242 130.94430176 225.10396484 131.57610352 225.47949219 132.22705078 C247.08534998 169.97532572 256.85198095 212.74189997 256.6875 255.9375 C256.68534485 256.95540619 256.6831897 257.97331238 256.68096924 259.02206421 C256.63129854 273.63113523 256.38040191 287.96325853 253.375 302.3125 C253.07698486 303.77478027 253.07698486 303.77478027 252.77294922 305.26660156 C242.65232806 353.6484774 220.7358123 397.63678269 186.375 433.3125 C185.74287598 433.97185547 185.11075195 434.63121094 184.45947266 435.31054688 C175.31502521 444.79880305 166.01765991 453.5387044 155.375 461.3125 C154.22394983 462.17056152 153.07290823 463.02863451 151.921875 463.88671875 C143.73224019 469.92427396 135.22961724 475.30707302 126.375 480.3125 C125.66778809 480.7146875 124.96057617 481.116875 124.23193359 481.53125 C101.09654164 494.5566741 75.92537591 503.30551461 49.9375 508.625 C49.21860596 508.77235596 48.49971191 508.91971191 47.7590332 509.0715332 C33.08339502 511.86090125 18.55831162 512.66142619 3.64770508 512.62817383 C0.70811513 512.6250221 -2.2304558 512.64854926 -5.16992188 512.67382812 C-18.54306192 512.71848737 -31.43916711 511.51301542 -44.625 509.3125 C-46.33055054 509.03031616 -46.33055054 509.03031616 -48.07055664 508.74243164 C-91.33802759 500.97044532 -132.38793216 480.98345309 -165.625 452.3125 C-166.37007813 451.67828125 -167.11515625 451.0440625 -167.8828125 450.390625 C-181.38779833 438.57948485 -194.05918743 425.82889772 -204.625 411.3125 C-205.48149066 410.16255169 -206.33826433 409.01281411 -207.1953125 407.86328125 C-213.23534209 399.67315742 -218.61867614 391.16870382 -223.625 382.3125 C-224.0271875 381.60528809 -224.429375 380.89807617 -224.84375 380.16943359 C-237.8691741 357.03404164 -246.61801461 331.86287591 -251.9375 305.875 C-252.08485596 305.15610596 -252.23221191 304.43721191 -252.3840332 303.6965332 C-255.35789088 288.05024391 -255.99800362 272.57681954 -255.9375 256.6875 C-255.93534485 255.66959381 -255.9331897 254.65168762 -255.93096924 253.60293579 C-255.88129854 238.99386477 -255.63040191 224.66174147 -252.625 210.3125 C-252.42632324 209.33764648 -252.22764648 208.36279297 -252.02294922 207.35839844 C-241.90232806 158.9765226 -219.9858123 114.98821731 -185.625 79.3125 C-184.99287598 78.65314453 -184.36075195 77.99378906 -183.70947266 77.31445312 C-174.56502521 67.82619695 -165.26765991 59.0862956 -154.625 51.3125 C-153.47394983 50.45443848 -152.32290823 49.59636549 -151.171875 48.73828125 C-142.98224019 42.70072604 -134.47961724 37.31792698 -125.625 32.3125 C-124.91778809 31.9103125 -124.21057617 31.508125 -123.48193359 31.09375 C-100.34654164 18.0683259 -75.17537591 9.31948539 -49.1875 4 C-48.46860596 3.85264404 -47.74971191 3.70528809 -47.0090332 3.5534668 C-31.36274391 0.57960912 -15.88931954 -0.06050362 0 0 Z M-0.625 113.3125 C-0.625 207.6925 -0.625 302.0725 -0.625 399.3125 C-0.295 399.3125 0.035 399.3125 0.375 399.3125 C0.375 304.9325 0.375 210.5525 0.375 113.3125 C0.045 113.3125 -0.285 113.3125 -0.625 113.3125 Z M41.375 181.3125 C42.95994159 185.48342196 44.9043615 188.64793293 47.5625 192.25 C52.05831596 198.41988823 56.39798024 204.68510238 60.6875 211 C61.32679443 211.94045166 61.96608887 212.88090332 62.62475586 213.84985352 C63.91567337 215.74946468 65.20628381 217.64928455 66.49658203 219.54931641 C68.82563111 222.97538575 71.16209167 226.39632652 73.50170898 229.81518555 C74.57400198 231.38225895 75.64515064 232.95011607 76.71508789 234.51879883 C79.31361054 238.32442942 81.93246472 242.11293978 84.59375 245.875 C85.35993652 246.96578857 85.35993652 246.96578857 86.14160156 248.07861328 C87.10011767 249.44129632 88.06518322 250.7994064 89.03808594 252.15185547 C93.53319694 258.56444947 93.53319694 258.56444947 93.375 262.3125 C91.81210468 264.45152144 90.36994372 266.10626771 88.5 267.9375 C87.47015252 268.99887845 86.44284746 270.06272911 85.41796875 271.12890625 C84.90153809 271.6614502 84.38510742 272.19399414 83.85302734 272.74267578 C81.71002203 275.01877823 79.76344571 277.43369091 77.8125 279.875 C74.78142433 283.64088189 71.64918423 287.25579756 68.375 290.8125 C64.26736854 295.27566061 60.41406151 299.88724635 56.609375 304.609375 C54.33651496 307.35905883 51.97217231 309.9948348 49.5625 312.625 C46.45487111 316.03143936 43.76087054 319.37062694 41.375 323.3125 C45.55942306 324.0242833 49.20368573 324.18131812 53.375 323.3125 C57.44058766 320.2149094 60.31305144 316.37654082 63.375 312.3125 C64.86883098 310.47413657 66.3686881 308.64065086 67.875 306.8125 C68.6071875 305.905 69.339375 304.9975 70.09375 304.0625 C72.44218968 301.23150422 74.88409902 298.51866402 77.375 295.8125 C81.49748345 291.33264956 85.36807771 286.70203995 89.19921875 281.97265625 C91.36687849 279.32242953 93.56738504 276.70991614 95.8125 274.125 C96.76962891 273.02091797 96.76962891 273.02091797 97.74609375 271.89453125 C99.375 270.3125 99.375 270.3125 101.375 270.3125 C102.62084961 271.80273438 102.62084961 271.80273438 104.02734375 273.90625 C104.55086426 274.68121826 105.07438477 275.45618652 105.61376953 276.25463867 C106.17435059 277.09873291 106.73493164 277.94282715 107.3125 278.8125 C108.49586 280.5691679 109.67945738 282.32567592 110.86328125 284.08203125 C111.4557666 284.96584473 112.04825195 285.8496582 112.65869141 286.76025391 C115.0787113 290.35895774 117.53685757 293.93073666 120 297.5 C122.81900488 301.59237102 125.63300209 305.68796772 128.43359375 309.79296875 C128.93616699 310.52813721 129.43874023 311.26330566 129.95654297 312.02075195 C130.92213074 313.43347722 131.88607863 314.84732516 132.84814453 316.26245117 C134.57318664 318.78324679 136.20985478 321.14735478 138.375 323.3125 C141.46024939 323.48803419 144.45464202 323.54372797 147.5390625 323.5078125 C148.44627045 323.5049826 149.35347839 323.50215271 150.28817749 323.49923706 C153.19225123 323.48802153 156.09601912 323.46291463 159 323.4375 C160.96614139 323.42747197 162.9322876 323.41834581 164.8984375 323.41015625 C169.72407659 323.38807772 174.5494864 323.35353865 179.375 323.3125 C177.06881828 319.20063241 174.72769644 315.2295598 172.01171875 311.37109375 C171.37967529 310.46883057 170.74763184 309.56656738 170.09643555 308.63696289 C169.42523682 307.68426514 168.75403809 306.73156738 168.0625 305.75 C166.62413258 303.69591964 165.18665449 301.64121628 163.75 299.5859375 C163.02167969 298.54405273 162.29335938 297.50216797 161.54296875 296.42871094 C158.18340385 291.59971472 154.87016252 286.73963721 151.5625 281.875 C150.32422678 280.05468204 149.08594571 278.23436941 147.84765625 276.4140625 C146.96811279 275.12097168 146.96811279 275.12097168 146.07080078 273.80175781 C138.89427749 263.26737378 131.63884288 252.78678208 124.375 242.3125 C126.85837468 238.44513224 129.43039406 234.98531038 132.5625 231.625 C135.76746366 228.12677169 138.8358453 224.5694296 141.8125 220.875 C145.67208603 216.10253797 149.74699991 211.58140891 153.90234375 207.06640625 C157.11120677 203.49255407 160.11476585 199.77254101 163.125 196.03125 C166.18843204 192.32960295 169.43987058 188.8158434 172.72265625 185.30859375 C174.58755342 183.48760415 174.58755342 183.48760415 174.375 181.3125 C170.19411649 180.61214896 166.53891471 180.42634645 162.375 181.3125 C158.6503182 184.44907415 156.16656081 188.35203476 153.375 192.3125 C151.73700482 194.17149453 150.07001964 196.00534829 148.375 197.8125 C144.26565343 202.27752417 140.41264514 206.8931948 136.6015625 211.61328125 C133.00310291 215.97562437 129.17598161 220.12714947 125.375 224.3125 C121.18589659 228.29122964 121.18589659 228.29122964 119.375 233.3125 C116.55005052 230.62090074 114.26626369 227.9069792 112.08984375 224.671875 C111.48205078 223.7737207 110.87425781 222.87556641 110.24804688 221.95019531 C109.28995117 220.52078613 109.28995117 220.52078613 108.3125 219.0625 C106.96770064 217.07274584 105.62264668 215.08316373 104.27734375 213.09375 C103.61589355 212.11277344 102.95444336 211.13179687 102.27294922 210.12109375 C99.66007349 206.25454854 97.02141502 202.40613666 94.375 198.5625 C93.96757568 197.96920898 93.56015137 197.37591797 93.14038086 196.76464844 C92.33261428 195.59013255 91.50546624 194.42873303 90.66040039 193.28076172 C89.375 191.3125 89.375 191.3125 88.24389648 188.66064453 C86.59752914 185.34800001 85.35658755 183.54261296 82.375 181.3125 C75.60644344 179.61079789 68.3395035 180.37872463 61.4375 180.6875 C59.49425455 180.73769632 57.55088519 180.78331751 55.60742188 180.82421875 C50.8602112 180.93407378 46.11896683 181.10639222 41.375 181.3125 Z M-114.80078125 193.38671875 C-122.04936318 201.03886199 -124.43573766 209.946747 -124.625 220.3125 C-124.3366147 222.3194741 -124.01419779 224.32261654 -123.625 226.3125 C-146.52966721 223.2799122 -167.00079317 216.87539609 -184.625 201.3125 C-185.70679486 200.4563857 -186.78993043 199.60196 -187.875 198.75 C-191.13867152 195.85720025 -193.87940289 192.69094751 -196.625 189.3125 C-201.91320916 195.32182859 -202.06888453 202.28673861 -201.9453125 209.95703125 C-200.97997584 220.06952142 -196.14386787 228.58509191 -188.625 235.3125 C-187.965 235.3125 -187.305 235.3125 -186.625 235.3125 C-186.625 235.9725 -186.625 236.6325 -186.625 237.3125 C-187.99785156 236.879375 -187.99785156 236.879375 -189.3984375 236.4375 C-190.58695313 236.06625 -191.77546875 235.695 -193 235.3125 C-194.18335938 234.94125 -195.36671875 234.57 -196.5859375 234.1875 C-199.41823439 233.22027394 -199.41823439 233.22027394 -201.625 233.3125 C-202.41675485 242.21974209 -199.28589822 249.80315532 -193.625 256.625 C-188.72512296 261.7539197 -183.11687652 264.61029759 -176.625 267.3125 C-177.625 268.3125 -177.625 268.3125 -180.34765625 268.41015625 C-181.44980469 268.39855469 -182.55195313 268.38695312 -183.6875 268.375 C-184.79222656 268.36597656 -185.89695312 268.35695313 -187.03515625 268.34765625 C-187.88980469 268.33605469 -188.74445313 268.32445312 -189.625 268.3125 C-187.53200053 276.68449786 -181.66628426 283.49402441 -174.625 288.3125 C-169.52079108 291.06859149 -164.23010922 292.88140829 -158.625 294.3125 C-174.61105928 304.60440984 -189.02791446 307.49267488 -207.625 308.3125 C-191.21630528 322.39007019 -165.2507637 325.45268368 -144.4675293 323.91162109 C-124.36035377 322.03786339 -106.42209922 315.04591937 -90.625 302.3125 C-89.79484375 301.64734375 -88.9646875 300.9821875 -88.109375 300.296875 C-71.79723008 286.44694064 -61.30131813 267.76640585 -55.625 247.3125 C-55.39167969 246.47976562 -55.15835938 245.64703125 -54.91796875 244.7890625 C-53.97364922 240.8079744 -53.58645487 236.95705166 -53.46484375 232.875 C-53.43745117 232.07425049 -53.41005859 231.27350098 -53.38183594 230.44848633 C-53.33649257 228.84725887 -53.31406391 227.24517645 -53.31738281 225.64331055 C-53.21460458 221.4767351 -53.03866432 219.81600052 -50.3046875 216.48828125 C-49.42039063 215.77027344 -48.53609375 215.05226562 -47.625 214.3125 C-41.76920382 208.63012976 -41.76920382 208.63012976 -36.625 202.3125 C-36.625 201.6525 -36.625 200.9925 -36.625 200.3125 C-45.04 202.2925 -45.04 202.2925 -53.625 204.3125 C-52.625 203.3125 -52.625 203.3125 -50.30078125 201.6015625 C-47.4600027 199.17134903 -45.77305146 196.85684463 -43.8125 193.6875 C-43.20792969 192.72585937 -42.60335937 191.76421875 -41.98046875 190.7734375 C-40.46418254 188.48878242 -40.46418254 188.48878242 -40.625 186.3125 C-43.87811219 187.34373158 -46.98011237 188.46913205 -50.10546875 189.84765625 C-59.79386115 193.97070787 -59.79386115 193.97070787 -64.765625 192.18359375 C-67.5062346 190.35014124 -70.05066338 188.37030306 -72.625 186.3125 C-87.07436444 178.63123935 -103.2294274 182.77017209 -114.80078125 193.38671875 Z " fill="#000000" transform="translate(255.625,-0.3125)"/>
<path d="M0 0 C15.73339164 -2.20104443 15.73339164 -2.20104443 20.80224609 1.21435547 C24.13256043 4.63441841 26.45190332 8.7288782 28.77587891 12.87109375 C30.70541844 16.22681467 32.95761767 19.3397424 35.1875 22.5 C36.10376043 23.8370381 37.01773161 25.1756472 37.9296875 26.515625 C41.52698803 31.78148098 45.16916504 37.01593148 48.8125 42.25 C49.49513916 43.23073486 50.17777832 44.21146973 50.88110352 45.22192383 C57.00004532 54.00774477 63.13778985 62.78033732 69.28222656 71.54833984 C72.76777425 76.52302288 76.25047857 81.49969774 79.73291016 86.4765625 C82.74594852 90.7821138 85.76155938 95.08582982 88.78125 99.38671875 C89.40386719 100.27423828 90.02648437 101.16175781 90.66796875 102.07617188 C91.84680665 103.75645575 93.02643091 105.43618836 94.20703125 107.11523438 C95.81259643 109.40479332 97.40940446 111.70001849 99 114 C99.57363281 114.82838379 100.14726562 115.65676758 100.73828125 116.51025391 C101.56392578 117.72140869 101.56392578 117.72140869 102.40625 118.95703125 C102.90447266 119.68510986 103.40269531 120.41318848 103.91601562 121.16333008 C105 123 105 123 105 125 C89.54757037 126.80028306 89.54757037 126.80028306 84.36328125 123.13671875 C82.47224557 120.56951707 80.84023049 117.94554349 79.28076172 115.16601562 C77.21563998 111.6734956 74.83844748 108.40759428 72.49609375 105.09716797 C70.39524918 102.12778164 68.3215348 99.14103253 66.25390625 96.1484375 C62.13724941 90.19639461 58.00837663 84.25294084 53.875 78.3125 C53.21185791 77.35907715 52.54871582 76.4056543 51.86547852 75.42333984 C45.83359619 66.75394243 39.7788278 58.10067756 33.71777344 49.45166016 C31.98047369 46.97213143 30.2439862 44.49203605 28.5078125 42.01171875 C27.92837891 41.18397949 27.34894531 40.35624023 26.75195312 39.50341797 C25.59144601 37.84513481 24.43128517 36.18660927 23.27148438 34.52783203 C20.23971686 30.19295136 17.20004829 25.86390834 14.1484375 21.54296875 C13.51679688 20.64642578 12.88515625 19.74988281 12.234375 18.82617188 C11.03116003 17.11866827 9.82558471 15.41282445 8.6171875 13.70898438 C5.48251862 9.25464947 2.61577885 4.77858136 0 0 Z " fill="#000000" transform="translate(313,190)"/>
</svg>
