<?xml version="1.0" encoding="UTF-8"?>
<!DOCTYPE svg PUBLIC "-//W3C//DTD SVG 1.1//EN" "http://www.w3.org/Graphics/SVG/1.1/DTD/svg11.dtd">
<svg xmlns="http://www.w3.org/2000/svg" version="1.1" width="512px" height="512px" style="shape-rendering:geometricPrecision; text-rendering:geometricPrecision; image-rendering:optimizeQuality; fill-rule:evenodd; clip-rule:evenodd" xmlns:xlink="http://www.w3.org/1999/xlink">
<g><path style="opacity:0.988" fill="#000000" d="M 232.5,-0.5 C 247.833,-0.5 263.167,-0.5 278.5,-0.5C 368.144,10.3879 435.644,54.7213 481,132.5C 497.695,163.971 507.861,197.304 511.5,232.5C 511.5,247.833 511.5,263.167 511.5,278.5C 500.612,368.144 456.279,435.644 378.5,481C 347.029,497.695 313.696,507.861 278.5,511.5C 263.167,511.5 247.833,511.5 232.5,511.5C 142.856,500.612 75.3562,456.279 30,378.5C 13.3053,347.029 3.1386,313.696 -0.5,278.5C -0.5,263.167 -0.5,247.833 -0.5,232.5C 10.3875,142.857 54.7208,75.3573 132.5,30C 163.971,13.3053 197.304,3.1386 232.5,-0.5 Z M 250.5,98.5 C 312.524,97.2539 360.024,122.587 393,174.5C 418.026,220.864 420.026,268.197 399,316.5C 365.857,378.497 314.024,407.33 243.5,403C 223.781,400.482 205.115,394.649 187.5,385.5C 160.864,392.117 134.364,399.117 108,406.5C 114.493,380.503 121.326,354.503 128.5,328.5C 101.684,277.06 101.851,225.727 129,174.5C 157.266,129.756 197.766,104.423 250.5,98.5 Z M 202.5,181.5 C 207.844,181.334 213.177,181.501 218.5,182C 225.059,193.954 230.392,206.454 234.5,219.5C 231.736,226.114 227.903,232.114 223,237.5C 222.333,239.5 222.333,241.5 223,243.5C 235.617,265.446 253.783,280.946 277.5,290C 279.167,290.667 280.833,290.667 282.5,290C 287.378,284.791 291.878,279.291 296,273.5C 297.182,271.643 298.849,270.643 301,270.5C 313.121,275.31 324.955,280.81 336.5,287C 339.607,300.324 335.273,310.658 323.5,318C 311.449,324.928 298.782,326.261 285.5,322C 256.144,313.236 231.644,297.069 212,273.5C 201.908,261.655 193.575,248.655 187,234.5C 179.392,212.846 184.558,195.18 202.5,181.5 Z"/></g>
<g><path style="opacity:0.982" fill="#000000" d="M 249.5,123.5 C 312.17,121.732 356.004,149.399 381,206.5C 397.751,259.322 386.917,305.489 348.5,345C 309.179,378.664 264.846,387.33 215.5,371C 206.974,367.487 198.808,363.321 191,358.5C 174.85,363.413 158.683,367.413 142.5,370.5C 146.833,355.167 151.167,339.833 155.5,324.5C 130.915,285.63 126.748,244.63 143,201.5C 164.295,156.03 199.795,130.03 249.5,123.5 Z M 202.5,181.5 C 184.558,195.18 179.392,212.846 187,234.5C 193.575,248.655 201.908,261.655 212,273.5C 231.644,297.069 256.144,313.236 285.5,322C 298.782,326.261 311.449,324.928 323.5,318C 335.273,310.658 339.607,300.324 336.5,287C 324.955,280.81 313.121,275.31 301,270.5C 298.849,270.643 297.182,271.643 296,273.5C 291.878,279.291 287.378,284.791 282.5,290C 280.833,290.667 279.167,290.667 277.5,290C 253.783,280.946 235.617,265.446 223,243.5C 222.333,241.5 222.333,239.5 223,237.5C 227.903,232.114 231.736,226.114 234.5,219.5C 230.392,206.454 225.059,193.954 218.5,182C 213.177,181.501 207.844,181.334 202.5,181.5 Z"/></g>
</svg>
