<?xml version="1.0" encoding="UTF-8"?>
<!DOCTYPE svg PUBLIC "-//W3C//DTD SVG 1.1//EN" "http://www.w3.org/Graphics/SVG/1.1/DTD/svg11.dtd">
<svg xmlns="http://www.w3.org/2000/svg" version="1.1" width="512px" height="512px" style="shape-rendering:geometricPrecision; text-rendering:geometricPrecision; image-rendering:optimizeQuality; fill-rule:evenodd; clip-rule:evenodd" xmlns:xlink="http://www.w3.org/1999/xlink">
<g><path style="opacity:0.989" fill="#000000" d="M 232.5,-0.5 C 247.833,-0.5 263.167,-0.5 278.5,-0.5C 368.144,10.3879 435.644,54.7213 481,132.5C 497.695,163.971 507.861,197.304 511.5,232.5C 511.5,247.833 511.5,263.167 511.5,278.5C 500.612,368.144 456.279,435.644 378.5,481C 347.029,497.695 313.696,507.861 278.5,511.5C 263.167,511.5 247.833,511.5 232.5,511.5C 142.856,500.612 75.3562,456.279 30,378.5C 13.3053,347.029 3.1386,313.696 -0.5,278.5C -0.5,263.167 -0.5,247.833 -0.5,232.5C 10.3875,142.857 54.7208,75.3573 132.5,30C 163.971,13.3053 197.304,3.1386 232.5,-0.5 Z M 250.5,143.5 C 290.582,143.617 330.582,145.45 370.5,149C 389.065,150.57 401.565,160.07 408,177.5C 410.647,188.011 412.314,198.677 413,209.5C 415.208,243.526 414.875,277.526 412,311.5C 411.272,323.15 408.272,334.15 403,344.5C 396.763,353.376 388.263,358.876 377.5,361C 363.919,363.191 350.252,364.525 336.5,365C 277.499,367.912 218.499,367.579 159.5,364C 145.956,363.8 132.956,361.133 120.5,356C 105.753,345.002 98.5864,330.169 99,311.5C 95.6667,274.167 95.6667,236.833 99,199.5C 98.5864,180.831 105.753,165.998 120.5,155C 126.389,151.611 132.722,149.611 139.5,149C 150.784,147.459 162.117,146.459 173.5,146C 199.327,145.117 224.993,144.283 250.5,143.5 Z"/></g>
<g><path style="opacity:0.968" fill="#000000" d="M 223.5,207.5 C 251.771,222.97 279.771,238.97 307.5,255.5C 279.997,271.753 252.33,287.753 224.5,303.5C 223.5,271.507 223.167,239.507 223.5,207.5 Z"/></g>
</svg>
